<svg width="287.44mm" height="65.849mm" version="1.1" viewBox="0 0 287.44 65.849">
 <g transform="translate(68.879 -116)">
  <g transform="translate(2024.1 913.39)">
   <g transform="matrix(.85802 0 0 .85802 -1832.4 -836.23)" fill="#fff">
    <circle cx="-290.22" cy="81.016" r="3.842" stroke-linecap="round" stroke-width=".79375"/>
    <circle cx="-265" cy="80.782" r="3.842" stroke-linecap="round" stroke-width=".79375"/>
    <path d="m-294.87 104.57s4.6104 7.5504 15.502 8.2854c10.891 0.73499 18.241-3.1404 18.776-6.4145s-1.0023-10.624 2.5391-11.693 6.8822-0.26727 7.2163 2.6727c0.33409 2.94 0.60135 4.3431-0.20045 10.624-0.80181 6.2808-7.8845 11.092-14.032 12.562-6.1472 1.47-9.3544 1.3363-12.562 1.4032-3.2072 0.0668-11.559-1.6704-17.439-5.8131-5.8799-4.1427-8.1517-10.357-8.1517-10.357s-1.2027-2.94 0.40091-8.0181c1.6036-5.0781 5.8131-2.94 6.4145-2.4722 0.60136 0.46772 2.0045 1.6036 1.5368 4.1427-0.46773 2.5391-0.86863 3.6081 0 5.0781z"/>
    <path d="m-285.24 57.196s3.4077-1.5368 7.2831-7.0826c3.8754-5.5458 8.0849 0.33409 8.0849 0.33409s1.9377 6.7486 4.009 8.6863 6.4145 10.691 6.4145 10.691 1.0691 3.2072-2.0713 5.5458c-3.1404 2.3386-23.386-1.2695-23.386-1.2695s-6.4145-0.26727-8.6194-1.6704c-2.205-1.4032-9.4212-3.0068-2.6059-7.684 6.8154-4.6772 10.891-7.5504 10.891-7.5504z"/>
    <circle cx="-296.49" cy="69.807" r="3.9923" stroke-linecap="round" stroke-width=".82481"/>
    <path d="m-291.69 61.739s-5.1449-9.4213-1.2695-14.332c3.8754-4.9111 6.8488 0.03341 7.0826 0.96885s-0.23386 2.8063-0.23386 6.047 2.2384 3.8754 2.2384 3.8754z"/>
    <path d="m-261.82 57.884s-1.7009-7.9847 3.8743-8.3627c5.5751-0.37798 4.2286 8.9297 4.2286 8.9297s-0.63783 5.0791-3.4726 6.0476c-2.8348 0.96856-5.1499 1.7481-5.1499 1.7481l-6.0004-6.6618s3.7325-0.3071 6.5201-1.7009z"/>
   </g>
   <text x="-2031.6256" y="-759.44592" fill="#ffffff" font-family="'Segoe Print'" font-size="20.856px" font-weight="bold" stroke-width=".52141" style="line-height:1.25" xml:space="preserve"><tspan x="-2031.6256" y="-759.44592">Happy Viking Studios </tspan><tspan x="-2031.6256" y="-733.37567"/></text>
  </g>
 </g>
</svg>
